<svg width="20" height="22" viewBox="0 0 20 22" fill="none" xmlns="http://www.w3.org/2000/svg">
<path d="M19.0267 12.8133C18.9148 12.6783 18.7773 12.5667 18.6222 12.4849C18.467 12.4031 18.2973 12.3527 18.1227 12.3366C17.948 12.3205 17.7719 12.339 17.6045 12.3911C17.437 12.4431 17.2814 12.5277 17.1467 12.64L11.3334 17.48V1.66665C11.3334 1.31302 11.1929 0.973886 10.9428 0.723838C10.6928 0.473789 10.3537 0.333313 10 0.333313C9.64642 0.333313 9.30728 0.473789 9.05723 0.723838C8.80718 0.973886 8.66671 1.31302 8.66671 1.66665V17.48L2.85337 12.64C2.71855 12.5279 2.56297 12.4435 2.39553 12.3916C2.22808 12.3396 2.05205 12.3212 1.87747 12.3373C1.7029 12.3534 1.5332 12.4037 1.37808 12.4854C1.22295 12.5671 1.08543 12.6785 0.973372 12.8133C0.86131 12.9481 0.776902 13.1037 0.724966 13.2712C0.673029 13.4386 0.654582 13.6146 0.670677 13.7892C0.686773 13.9638 0.737096 14.1335 0.818773 14.2886C0.90045 14.4437 1.01188 14.5813 1.14671 14.6933L9.14671 21.36L9.34671 21.48L9.52004 21.5733C9.82894 21.6925 10.1711 21.6925 10.48 21.5733L10.6534 21.48L10.8534 21.36L18.8534 14.6933C18.9884 14.5814 19.1 14.4439 19.1818 14.2888C19.2636 14.1337 19.314 13.9639 19.3301 13.7893C19.3462 13.6146 19.3277 13.4385 19.2756 13.2711C19.2236 13.1036 19.139 12.948 19.0267 12.8133Z" fill="#ffffff"/>
</svg>
