<svg width="20" height="22" viewBox="0 0 20 22" fill="none" xmlns="http://www.w3.org/2000/svg">
<path d="M19.0267 12.8133C18.9148 12.6782 18.7773 12.5666 18.6222 12.4848C18.467 12.403 18.2973 12.3526 18.1227 12.3365C17.948 12.3204 17.7719 12.3389 17.6045 12.391C17.437 12.4431 17.2814 12.5276 17.1467 12.6399L11.3334 17.4799V1.66659C11.3334 1.31296 11.1929 0.973825 10.9428 0.723777C10.6928 0.473728 10.3537 0.333252 10 0.333252C9.64642 0.333252 9.30728 0.473728 9.05723 0.723777C8.80718 0.973825 8.66671 1.31296 8.66671 1.66659V17.4799L2.85337 12.6399C2.71855 12.5279 2.56297 12.4434 2.39553 12.3915C2.22808 12.3396 2.05205 12.3211 1.87747 12.3372C1.7029 12.3533 1.5332 12.4036 1.37808 12.4853C1.22295 12.567 1.08543 12.6784 0.973372 12.8133C0.86131 12.9481 0.776902 13.1037 0.724966 13.2711C0.673029 13.4385 0.654582 13.6146 0.670677 13.7892C0.686773 13.9637 0.737096 14.1334 0.818773 14.2885C0.90045 14.4437 1.01188 14.5812 1.14671 14.6933L9.14671 21.3599L9.34671 21.4799L9.52004 21.5733C9.82894 21.6924 10.1711 21.6924 10.48 21.5733L10.6534 21.4799L10.8534 21.3599L18.8534 14.6933C18.9884 14.5813 19.1 14.4439 19.1818 14.2887C19.2636 14.1336 19.314 13.9639 19.3301 13.7892C19.3462 13.6146 19.3277 13.4385 19.2756 13.271C19.2236 13.1035 19.139 12.948 19.0267 12.8133Z" fill="#3A4354"/>
</svg>
